<!-- Save this as public/google-icon.svg -->
<svg xmlns="http://www.w3.org/2000/svg" viewBox="0 0 48 48" width="24px" height="24px">
  <path fill="#4285F4" d="M24 9.5c3.5 0 6 1.5 7.5 2.5L37 8C34 6 29.5 4 24 4 14.5 4 6.5 9 3 16.5l7 5.5C11 14.5 17 9.5 24 9.5z"/>
  <path fill="#34A853" d="M24 42c5 0 9-1.5 12-4l-6-5c-1.5 1-4 2.5-6 2.5-5 0-9-3.5-10.5-8H4v5C7.5 37.5 14.5 42 24 42z"/>
  <path fill="#FBBC05" d="M13.5 26.5C13 25 13 24 13 23s.5-2 1.5-3.5L7 14C3 20 3 27 7 33.5l6.5-5.5z"/>
  <path fill="#EA4335" d="M24 14.5c2.5 0 4.5 1 6 3l4.5-4.5c-2-3-5.5-5-10.5-5C17 8 11 13 8 19l6 5.5c1.5-4 5.5-8 10-8z"/>
</svg>
